{
  "accessors": [
    {
      "bufferView": 2,
      "componentType": 5126,
      "count": 49,
      "max": [
        4.71532678604126,
        0.6459739804267883,
        6.608891010284424
      ],
      "min": [
        3.1850080490112305,
        -2.0517799854278564,
        4.648835182189941
      ],
      "type": "VEC3"
    },
    {
      "bufferView": 2,
      "byteOffset": 588,
      "componentType": 5126,
      "count": 49,
      "max": [
        0.8250104784965515,
        0.11683095991611481,
        0.7438901662826538
      ],
      "min": [
        0.6682992577552795,
        -0.12118270993232727,
        0.5651114583015442
      ],
      "type": "VEC3"
    },
    {
      "bufferView": 1,
      "componentType": 5126,
      "count": 49,
      "max": [
        0.9963780045509338,
        0.9999330043792725
      ],
      "min": [
        -0.003622000105679035,
        -6.70000008540228e-05
      ],
      "type": "VEC2"
    },
    {
      "bufferView": 0,
      "componentType": 5125,
      "count": 216,
      "type": "SCALAR"
    },
    {
      "bufferView": 2,
      "byteOffset": 1176,
      "componentType": 5126,
      "count": 8696,
      "max": [
        5.369600772857666,
        0.8150799870491028,
        7.735205173492432
      ],
      "min": [
        -4.040557861328125,
        -2.1981420516967773,
        -2.056291103363037
      ],
      "type": "VEC3"
    },
    {
      "bufferView": 2,
      "byteOffset": 105528,
      "componentType": 5126,
      "count": 8696,
      "max": [
        0.9999533891677856,
        0.9999671578407288,
        0.9999995231628418
      ],
      "min": [
        -0.9999476671218872,
        -0.9999671578407288,
        -0.9999995231628418
      ],
      "type": "VEC3"
    },
    {
      "bufferView": 1,
      "byteOffset": 392,
      "componentType": 5126,
      "count": 8696,
      "max": [
        0.9975720047950745,
        -0.003043999895453453
      ],
      "min": [
        0.003020999953150749,
        -0.9964979887008667
      ],
      "type": "VEC2"
    },
    {
      "bufferView": 0,
      "byteOffset": 864,
      "componentType": 5125,
      "count": 20310,
      "type": "SCALAR"
    },
    {
      "bufferView": 2,
      "byteOffset": 209880,
      "componentType": 5126,
      "count": 9927,
      "max": [
        5.369600772857666,
        0.5075740218162537,
        7.735205173492432
      ],
      "min": [
        -4.040557861328125,
        -1.7792190313339233,
        -2.038965940475464
      ],
      "type": "VEC3"
    },
    {
      "bufferView": 2,
      "byteOffset": 329004,
      "componentType": 5126,
      "count": 9927,
      "max": [
        0.9999686479568481,
        0.9999988079071045,
        0.9998934268951416
      ],
      "min": [
        -0.9999984502792358,
        -0.9999988079071045,
        -0.9999974966049194
      ],
      "type": "VEC3"
    },
    {
      "bufferView": 1,
      "byteOffset": 69960,
      "componentType": 5126,
      "count": 9927,
      "max": [
        0.9987879991531372,
        -0.005113000050187111
      ],
      "min": [
        0.0013760000001639128,
        -0.9961079955101013
      ],
      "type": "VEC2"
    },
    {
      "bufferView": 0,
      "byteOffset": 82104,
      "componentType": 5125,
      "count": 31734,
      "type": "SCALAR"
    },
    {
      "bufferView": 2,
      "byteOffset": 448128,
      "componentType": 5126,
      "count": 7255,
      "max": [
        5.303934097290039,
        0.8150799870491028,
        7.723977088928223
      ],
      "min": [
        -4.0260467529296875,
        -2.1981420516967773,
        -2.056291103363037
      ],
      "type": "VEC3"
    },
    {
      "bufferView": 2,
      "byteOffset": 535188,
      "componentType": 5126,
      "count": 7255,
      "max": [
        0.9999690055847168,
        0.9999994039535522,
        0.9998317956924438
      ],
      "min": [
        -0.9999984502792358,
        -0.9999994039535522,
        -0.9998317956924438
      ],
      "type": "VEC3"
    },
    {
      "bufferView": 1,
      "byteOffset": 149376,
      "componentType": 5126,
      "count": 7255,
      "max": [
        0.9954040050506592,
        -0.00887299980968237
      ],
      "min": [
        0.005646999925374985,
        -0.9916089773178101
      ],
      "type": "VEC2"
    },
    {
      "bufferView": 0,
      "byteOffset": 209040,
      "componentType": 5125,
      "count": 21456,
      "type": "SCALAR"
    },
    {
      "bufferView": 2,
      "byteOffset": 622248,
      "componentType": 5126,
      "count": 1751,
      "max": [
        5.388686180114746,
        1.3511539697647095,
        7.510234832763672
      ],
      "min": [
        1.8636900186538696,
        -2.7528300285339355,
        3.1420578956604004
      ],
      "type": "VEC3"
    },
    {
      "bufferView": 2,
      "byteOffset": 643260,
      "componentType": 5126,
      "count": 1751,
      "max": [
        0.9989880323410034,
        0.9999774694442749,
        0.9986093640327454
      ],
      "min": [
        -0.997321367263794,
        -0.9999774694442749,
        -0.9937489032745361
      ],
      "type": "VEC3"
    },
    {
      "bufferView": 1,
      "byteOffset": 207416,
      "componentType": 5126,
      "count": 1751,
      "max": [
        1.9738839864730835,
        -0.0015010000206530094
      ],
      "min": [
        0.028449000790715218,
        -1.000040054321289
      ],
      "type": "VEC2"
    },
    {
      "bufferView": 0,
      "byteOffset": 294864,
      "componentType": 5125,
      "count": 5040,
      "type": "SCALAR"
    },
    {
      "bufferView": 2,
      "byteOffset": 664272,
      "componentType": 5126,
      "count": 1725,
      "max": [
        3.906503915786743,
        1.4703999757766724,
        5.615972995758057
      ],
      "min": [
        3.2513890266418457,
        -2.887892961502075,
        4.935869216918945
      ],
      "type": "VEC3"
    },
    {
      "bufferView": 2,
      "byteOffset": 684972,
      "componentType": 5126,
      "count": 1725,
      "max": [
        0.9978247284889221,
        0.9999912977218628,
        0.9986674785614014
      ],
      "min": [
        -0.9978247284889221,
        -0.9999912977218628,
        -0.9986674785614014
      ],
      "type": "VEC3"
    },
    {
      "bufferView": 1,
      "byteOffset": 221424,
      "componentType": 5126,
      "count": 1725,
      "max": [
        1.6900650262832642,
        0.0
      ],
      "min": [
        9.999999974752427e-07,
        -1.0
      ],
      "type": "VEC2"
    },
    {
      "bufferView": 0,
      "byteOffset": 315024,
      "componentType": 5125,
      "count": 3744,
      "type": "SCALAR"
    }
  ],
  "asset": {
    "extras": {
      "author": "Dinesh Naidu (https://sketchfab.com/Dinesh_TS)",
      "license": "CC-BY-4.0 (http://creativecommons.org/licenses/by/4.0/)",
      "source": "https://sketchfab.com/3d-models/wrist-watch-cd471b55a205468ba87a2e8494a99746",
      "title": "Wrist Watch"
    },
    "generator": "Sketchfab-12.65.0",
    "version": "2.0"
  },
  "bufferViews": [
    {
      "buffer": 0,
      "byteLength": 330000,
      "name": "floatBufferViews",
      "target": 34963
    },
    {
      "buffer": 0,
      "byteLength": 235224,
      "byteOffset": 330000,
      "byteStride": 8,
      "name": "floatBufferViews",
      "target": 34962
    },
    {
      "buffer": 0,
      "byteLength": 705672,
      "byteOffset": 565224,
      "byteStride": 12,
      "name": "floatBufferViews",
      "target": 34962
    }
  ],
  "buffers": [
    {
      "byteLength": 1270896,
      "uri": "scene.bin"
    }
  ],
  "extensionsRequired": [
    "KHR_materials_pbrSpecularGlossiness"
  ],
  "extensionsUsed": [
    "KHR_materials_pbrSpecularGlossiness"
  ],
  "images": [
    {
      "uri": "textures/FB_IMG_15851297372435228_diffuse.jpeg"
    },
    {
      "uri": "textures/bodychains_emissive.jpeg"
    }
  ],
  "materials": [
    {
      "doubleSided": true,
      "emissiveTexture": {
        "index": 0
      },
      "extensions": {
        "KHR_materials_pbrSpecularGlossiness": {
          "diffuseFactor": [
            1.0,
            1.0,
            1.0,
            1.0
          ],
          "diffuseTexture": {
            "index": 0
          },
          "glossinessFactor": 0.21147425268811282,
          "specularFactor": [
            0.0,
            0.0,
            0.0
          ]
        }
      },
      "name": "FB_IMG_15851297372435228"
    },
    {
      "doubleSided": true,
      "emissiveTexture": {
        "index": 1
      },
      "extensions": {
        "KHR_materials_pbrSpecularGlossiness": {
          "diffuseFactor": [
            0.01548952640165421,
            0.014328728384693715,
            0.014328728384693715,
            1.0
          ],
          "glossinessFactor": 0.5197600393584281,
          "specularFactor": [
            0.5359217788233902,
            0.5359217788233902,
            0.5359217788233902
          ]
        }
      },
      "name": "bodychains"
    },
    {
      "doubleSided": true,
      "emissiveTexture": {
        "index": 1
      },
      "extensions": {
        "KHR_materials_pbrSpecularGlossiness": {
          "diffuseFactor": [
            0.016484293324356924,
            0.015512563679335303,
            0.015512563679335303,
            1.0
          ],
          "glossinessFactor": 0.52,
          "specularFactor": [
            0.586,
            0.586,
            0.586
          ]
        }
      },
      "name": "bodymain"
    },
    {
      "doubleSided": true,
      "emissiveTexture": {
        "index": 1
      },
      "extensions": {
        "KHR_materials_pbrSpecularGlossiness": {
          "diffuseFactor": [
            0.01995098336106371,
            0.017761859721719675,
            0.017761859721719675,
            1.0
          ],
          "glossinessFactor": 0.48,
          "specularFactor": [
            0.586,
            0.586,
            0.586
          ]
        }
      },
      "name": "nutstwo"
    }
  ],
  "meshes": [
    {
      "name": "Object_0",
      "primitives": [
        {
          "attributes": {
            "NORMAL": 1,
            "POSITION": 0,
            "TEXCOORD_0": 2
          },
          "indices": 3,
          "material": 0,
          "mode": 4
        }
      ]
    },
    {
      "name": "Object_1",
      "primitives": [
        {
          "attributes": {
            "NORMAL": 5,
            "POSITION": 4,
            "TEXCOORD_0": 6
          },
          "indices": 7,
          "material": 1,
          "mode": 4
        }
      ]
    },
    {
      "name": "Object_2",
      "primitives": [
        {
          "attributes": {
            "NORMAL": 9,
            "POSITION": 8,
            "TEXCOORD_0": 10
          },
          "indices": 11,
          "material": 1,
          "mode": 4
        }
      ]
    },
    {
      "name": "Object_3",
      "primitives": [
        {
          "attributes": {
            "NORMAL": 13,
            "POSITION": 12,
            "TEXCOORD_0": 14
          },
          "indices": 15,
          "material": 1,
          "mode": 4
        }
      ]
    },
    {
      "name": "Object_4",
      "primitives": [
        {
          "attributes": {
            "NORMAL": 17,
            "POSITION": 16,
            "TEXCOORD_0": 18
          },
          "indices": 19,
          "material": 2,
          "mode": 4
        }
      ]
    },
    {
      "name": "Object_5",
      "primitives": [
        {
          "attributes": {
            "NORMAL": 21,
            "POSITION": 20,
            "TEXCOORD_0": 22
          },
          "indices": 23,
          "material": 3,
          "mode": 4
        }
      ]
    }
  ],
  "nodes": [
    {
      "children": [
        1
      ],
      "matrix": [
        1.0,
        0.0,
        0.0,
        0.0,
        0.0,
        2.220446049250313e-16,
        -1.0,
        0.0,
        0.0,
        1.0,
        2.220446049250313e-16,
        0.0,
        0.0,
        0.0,
        0.0,
        1.0
      ],
      "name": "Sketchfab_model"
    },
    {
      "children": [
        2,
        3,
        4,
        5,
        6,
        7
      ],
      "name": "Wristwatch.obj.cleaner.materialmerger.gles"
    },
    {
      "mesh": 0,
      "name": "Object_2"
    },
    {
      "mesh": 1,
      "name": "Object_3"
    },
    {
      "mesh": 2,
      "name": "Object_4"
    },
    {
      "mesh": 3,
      "name": "Object_5"
    },
    {
      "mesh": 4,
      "name": "Object_6"
    },
    {
      "mesh": 5,
      "name": "Object_7"
    }
  ],
  "samplers": [
    {
      "magFilter": 9729,
      "minFilter": 9987,
      "wrapS": 10497,
      "wrapT": 10497
    }
  ],
  "scene": 0,
  "scenes": [
    {
      "name": "Sketchfab_Scene",
      "nodes": [
        0
      ]
    }
  ],
  "textures": [
    {
      "sampler": 0,
      "source": 0
    },
    {
      "sampler": 0,
      "source": 1
    }
  ]
}
